<svg width="238" height="140" viewBox="0 0 238 140" fill="none" xmlns="http://www.w3.org/2000/svg">
<path d="M104.259 121.612C91.9314 121.612 84.0801 112.246 84.0801 101.639C84.0801 90.5511 92.6201 81.6667 103.502 81.6667C113.419 81.6667 120.513 88.0718 121.89 96.8873H113.557C112.111 92.3418 108.667 89.3803 103.639 89.3803C97.5788 89.3803 92.7578 94.339 92.7578 101.57C92.7578 108.389 97.2345 113.967 104.741 113.967C106.739 113.967 109.08 113.554 111.56 112.59L120.513 109.215L122.923 116.516L114.934 119.615C111.697 120.854 107.703 121.612 104.259 121.612Z" fill="black"/>
<path d="M34.676 69.8471C26.2737 69.8471 19.7309 66.4035 18.3535 58.9655L25.8605 56.6238C26.6869 61.2382 30.3371 63.3732 34.8137 63.3732C39.3592 63.3732 41.9763 61.4448 41.9763 58.3456C41.9763 54.9709 38.7394 54.1445 34.676 53.4558L31.5768 52.9737C25.6539 52.0095 19.1111 50.3566 19.1111 41.6099C19.1111 34.7228 25.1029 29.9019 33.9184 29.9019C43.1471 29.9019 48.5191 35.1361 49.0012 42.0232H41.0121C40.7366 38.924 38.395 36.4446 33.8495 36.4446C29.9239 36.4446 27.2379 38.0975 27.2379 41.1967C27.2379 44.2959 30.3371 45.1224 34.0561 45.7422L37.5686 46.362C44.1113 47.3951 50.1031 49.4613 50.1031 57.6569C50.1031 64.9572 44.2491 69.8471 34.676 69.8471Z" fill="black"/>
<path d="M70.4193 69.8471C60.2953 69.8471 52.0996 61.0316 52.0996 49.9433C52.0996 38.7862 60.2953 29.9019 70.4193 29.9019C76.0667 29.9019 80.75 32.4501 83.9181 36.4446V30.5906H92.1826V81.5552H83.9181V63.3043C80.75 67.3677 76.0667 69.8471 70.4193 69.8471ZM72.2788 62.1335C78.7527 62.1335 83.9181 57.2437 83.9181 49.8745C83.9181 42.5053 78.7527 37.6154 72.2788 37.6154C65.8738 37.6154 60.7774 42.5053 60.7774 49.9433C60.7774 57.2437 65.8738 62.1335 72.2788 62.1335Z" fill="black"/>
<path d="M153.525 69.8471C143.401 69.8471 135.205 61.0316 135.205 49.9433C135.205 38.7862 143.401 29.9019 153.525 29.9019C159.172 29.9019 163.855 32.4501 167.024 36.4446V30.5906H175.288V69.1584H167.024V63.3043C163.855 67.3677 159.172 69.8471 153.525 69.8471ZM155.384 62.1335C161.858 62.1335 167.024 57.2437 167.024 49.8745C167.024 42.5053 161.858 37.6154 155.384 37.6154C148.979 37.6154 143.883 42.5053 143.883 49.9433C143.883 57.2437 148.979 62.1335 155.384 62.1335Z" fill="black"/>
<path d="M197.763 69.8472C187.639 69.8472 179.443 61.0317 179.443 49.9434C179.443 38.7863 187.639 29.9019 197.763 29.9019C203.41 29.9019 208.094 32.4502 211.262 36.4447V18.1938H219.526V69.1585H211.262V63.3044C208.094 67.3678 203.41 69.8472 197.763 69.8472ZM199.623 62.1336C206.096 62.1336 211.262 57.2438 211.262 49.8746C211.262 42.5053 206.096 37.6155 199.623 37.6155C193.218 37.6155 188.121 42.5054 188.121 49.9434C188.121 57.2438 193.218 62.1336 199.623 62.1336Z" fill="black"/>
<path d="M145.329 122.301C134.103 122.301 124.943 113.416 124.943 102.328C124.943 91.2398 134.103 82.3555 145.329 82.3555C156.555 82.3555 165.646 91.2398 165.646 102.328C165.646 113.416 156.555 122.301 145.329 122.301ZM145.329 114.587C151.734 114.587 156.968 109.628 156.968 102.328C156.968 95.0278 151.734 90.069 145.329 90.069C138.855 90.069 133.552 95.0278 133.552 102.328C133.552 109.628 138.855 114.587 145.329 114.587Z" fill="black"/>
<path d="M175.909 121.612H167.645V83.0442H175.909V87.3831C178.044 84.4216 181.281 82.3555 185.758 82.3555C190.716 82.3555 194.435 84.6971 196.364 88.7605C198.43 85.0414 202.218 82.3555 207.59 82.3555C214.959 82.3555 219.642 87.3831 219.642 95.7853V121.612H211.378V98.127C211.378 92.8927 208.761 90.4134 204.904 90.4134C200.772 90.4134 197.81 93.5815 197.81 98.7468V121.612H189.477V98.127C189.477 92.8927 186.928 90.4134 183.003 90.4134C178.871 90.4134 175.909 93.5815 175.909 98.7468V121.612Z" fill="black"/>
<circle cx="77.8823" cy="117.48" r="4.13227" fill="black"/>
<path d="M122.803 49.6493V30.5906H131.071V69.0872H123.359V61.528C121.252 66.6874 116.84 69.8471 110.4 69.8471C100.779 69.8471 96.4062 64.0477 96.4062 54.4888V30.5906H104.675V52.529C104.675 59.1283 107.179 62.1679 112.506 62.1679C118.509 62.1679 122.803 57.8084 122.803 49.6493Z" fill="black"/>
</svg>
