<svg width="555" height="100" viewBox="0 0 555 100" fill="none" xmlns="http://www.w3.org/2000/svg">
<path d="M372.079 80.4359C352.622 80.4359 340.23 65.653 340.23 48.9135C340.23 31.4131 353.709 17.3911 370.883 17.3911C386.536 17.3911 397.732 27.5 399.906 41.4133H386.753C384.471 34.2393 379.036 29.5653 371.101 29.5653C361.535 29.5653 353.926 37.3915 353.926 48.8048C353.926 59.5659 360.992 68.3704 372.84 68.3704C375.992 68.3704 379.688 67.7182 383.601 66.1965L397.732 60.8703L401.536 72.3922L388.927 77.2836C383.818 79.2402 377.514 80.4359 372.079 80.4359Z" fill="black"/>
<path d="M25.7614 81.5213C12.5003 81.5213 2.17396 76.0864 0 64.3471L11.8481 60.6513C13.1524 67.9341 18.9134 71.3037 25.9788 71.3037C33.1529 71.3037 37.2834 68.2602 37.2834 63.3688C37.2834 58.0426 32.1746 56.7382 25.7614 55.6512L20.87 54.8903C11.522 53.3686 1.19568 50.7598 1.19568 36.9552C1.19568 26.0854 10.6524 18.4765 24.5657 18.4765C39.1313 18.4765 47.6097 26.7376 48.3706 37.6074H35.7616C35.3268 32.716 31.6311 28.8028 24.457 28.8028C18.2613 28.8028 14.022 31.4116 14.022 36.303C14.022 41.1944 18.9134 42.4988 24.7831 43.4771L30.3267 44.4553C40.653 46.0858 50.1097 49.3467 50.1097 62.2818C50.1097 73.8038 40.8704 81.5213 25.7614 81.5213Z" fill="black"/>
<path d="M82.1773 81.5213C66.1987 81.5213 53.2637 67.608 53.2637 50.1076C53.2637 32.4986 66.1987 18.4765 82.1773 18.4765C91.0905 18.4765 98.482 22.4984 103.482 28.8028V19.5635H116.526V100H103.482V71.195C98.482 77.6082 91.0905 81.5213 82.1773 81.5213ZM85.1122 69.3472C95.3298 69.3472 103.482 61.6296 103.482 49.9989C103.482 38.3683 95.3298 30.6507 85.1122 30.6507C75.0033 30.6507 66.9596 38.3683 66.9596 50.1076C66.9596 61.6296 75.0033 69.3472 85.1122 69.3472Z" fill="black"/>
<path d="M213.341 81.5213C197.363 81.5213 184.428 67.608 184.428 50.1076C184.428 32.4986 197.363 18.4765 213.341 18.4765C222.255 18.4765 229.646 22.4984 234.646 28.8028V19.5635H247.69V80.4344H234.646V71.195C229.646 77.6082 222.255 81.5213 213.341 81.5213ZM216.276 69.3472C226.494 69.3472 234.646 61.6296 234.646 49.9989C234.646 38.3683 226.494 30.6507 216.276 30.6507C206.167 30.6507 198.124 38.3683 198.124 50.1076C198.124 61.6296 206.167 69.3472 216.276 69.3472Z" fill="black"/>
<path d="M283.144 81.5234C267.166 81.5234 254.23 67.6101 254.23 50.1097C254.23 32.5007 267.166 18.4786 283.144 18.4786C292.057 18.4786 299.449 22.5005 304.449 28.805V0H317.493V80.4365H304.449V71.1971C299.449 77.6103 292.057 81.5234 283.144 81.5234ZM286.079 69.3493C296.297 69.3493 304.449 61.6317 304.449 50.001C304.449 38.3704 296.297 30.6528 286.079 30.6528C275.97 30.6528 267.926 38.3704 267.926 50.1097C267.926 61.6317 275.97 69.3493 286.079 69.3493Z" fill="black"/>
<path d="M436.889 81.5213C419.172 81.5213 404.715 67.4993 404.715 49.9989C404.715 32.4986 419.172 18.4765 436.889 18.4765C454.607 18.4765 468.955 32.4986 468.955 49.9989C468.955 67.4993 454.607 81.5213 436.889 81.5213ZM436.889 69.3472C446.998 69.3472 455.259 61.5209 455.259 49.9989C455.259 38.477 446.998 30.6507 436.889 30.6507C426.672 30.6507 418.302 38.477 418.302 49.9989C418.302 61.5209 426.672 69.3472 436.889 69.3472Z" fill="black"/>
<path d="M485.163 80.4344H472.119V19.5635H485.163V26.4115C488.533 21.7375 493.641 18.4765 500.707 18.4765C508.533 18.4765 514.403 22.1723 517.446 28.5854C520.707 22.7158 526.686 18.4765 535.164 18.4765C546.795 18.4765 554.186 26.4115 554.186 39.6726V80.4344H541.142V43.3684C541.142 35.1073 537.012 31.1942 530.925 31.1942C524.403 31.1942 519.729 36.1943 519.729 44.3466V80.4344H506.576V43.3684C506.576 35.1073 502.555 31.1942 496.359 31.1942C489.837 31.1942 485.163 36.1943 485.163 44.3466V80.4344Z" fill="black"/>
<circle cx="330.448" cy="73.9141" r="6.52188" fill="black"/>
<path d="M164.85 49.6442V19.5642H177.901V80.3226H165.729V68.3921C162.403 76.5352 155.439 81.522 145.275 81.522C130.091 81.522 123.189 72.369 123.189 57.2822V19.5642H136.24V54.1892C136.24 64.6047 140.193 69.4021 148.6 69.4021C158.074 69.4021 164.85 62.5216 164.85 49.6442Z" fill="black"/>
</svg>
