<svg width="133" height="24" viewBox="0 0 133 24" fill="none" xmlns="http://www.w3.org/2000/svg">
<path d="M89.2987 19.3046C84.629 19.3046 81.655 15.7567 81.655 11.7392C81.655 7.53912 84.8899 4.17383 89.0117 4.17383C92.7683 4.17383 95.4553 6.59997 95.9771 9.93917H92.8205C92.2726 8.21739 90.9683 7.09563 89.0639 7.09563C86.7682 7.09563 84.9421 8.97393 84.9421 11.7131C84.9421 14.2958 86.6377 16.4089 89.4813 16.4089C90.2378 16.4089 91.1248 16.2523 92.0639 15.8871L95.4553 14.6088L96.3684 17.3741L93.3422 18.548C92.1161 19.0176 90.603 19.3046 89.2987 19.3046Z" fill="white"/>
<path d="M6.18274 19.5653C3.00006 19.5653 0.52175 18.2609 0 15.4435L2.84354 14.5565C3.15659 16.3044 4.53923 17.1131 6.23491 17.1131C7.95669 17.1131 8.94801 16.3826 8.94801 15.2087C8.94801 13.9304 7.7219 13.6174 6.18274 13.3565L5.0088 13.1739C2.76528 12.8087 0.286963 12.1826 0.286963 8.86945C0.286963 6.2607 2.55658 4.43457 5.89578 4.43457C9.3915 4.43457 11.4263 6.41722 11.6089 9.02597H8.58279C8.47844 7.85203 7.59146 6.91288 5.86969 6.91288C4.3827 6.91288 3.36529 7.53898 3.36529 8.71292C3.36529 9.88686 4.53923 10.1999 5.94795 10.4347L7.27841 10.6695C9.75673 11.0608 12.0263 11.8434 12.0263 14.9478C12.0263 17.7131 9.8089 19.5653 6.18274 19.5653Z" fill="white"/>
<path d="M19.7222 19.5653C15.8874 19.5653 12.783 16.2261 12.783 12.026C12.783 7.79986 15.8874 4.43457 19.7222 4.43457C21.8614 4.43457 23.6354 5.39981 24.8354 6.91288V4.69545H27.9659V24.0002H24.8354V17.087C23.6354 18.6262 21.8614 19.5653 19.7222 19.5653ZM20.4266 16.6435C22.8788 16.6435 24.8354 14.7913 24.8354 11.9999C24.8354 9.20858 22.8788 7.35637 20.4266 7.35637C18.0005 7.35637 16.07 9.20858 16.07 12.026C16.07 14.7913 18.0005 16.6435 20.4266 16.6435Z" fill="white"/>
<path d="M51.2021 19.5653C47.3672 19.5653 44.2628 16.2261 44.2628 12.026C44.2628 7.79986 47.3672 4.43457 51.2021 4.43457C53.3413 4.43457 55.1152 5.39981 56.3152 6.91288V4.69545H59.4457V19.3044H56.3152V17.087C55.1152 18.6262 53.3413 19.5653 51.2021 19.5653ZM51.9065 16.6435C54.3587 16.6435 56.3152 14.7913 56.3152 11.9999C56.3152 9.20858 54.3587 7.35637 51.9065 7.35637C49.4803 7.35637 47.5498 9.20858 47.5498 12.026C47.5498 14.7913 49.4803 16.6435 51.9065 16.6435Z" fill="white"/>
<path d="M67.9551 19.5656C64.1203 19.5656 61.0159 16.2264 61.0159 12.0263C61.0159 7.80016 64.1203 4.43487 67.9551 4.43487C70.0943 4.43487 71.8683 5.40011 73.0683 6.91319V0H76.1988V19.3047H73.0683V17.0873C71.8683 18.6265 70.0943 19.5656 67.9551 19.5656ZM68.6595 16.6438C71.1117 16.6438 73.0683 14.7916 73.0683 12.0003C73.0683 9.20889 71.1117 7.35667 68.6595 7.35667C66.2334 7.35667 64.3029 9.20889 64.3029 12.0263C64.3029 14.7916 66.2334 16.6438 68.6595 16.6438Z" fill="white"/>
<path d="M104.854 19.5653C100.602 19.5653 97.132 16.2 97.132 11.9999C97.132 7.79986 100.602 4.43457 104.854 4.43457C109.106 4.43457 112.55 7.79986 112.55 11.9999C112.55 16.2 109.106 19.5653 104.854 19.5653ZM104.854 16.6435C107.28 16.6435 109.263 14.7652 109.263 11.9999C109.263 9.23467 107.28 7.35637 104.854 7.35637C102.402 7.35637 100.393 9.23467 100.393 11.9999C100.393 14.7652 102.402 16.6435 104.854 16.6435Z" fill="white"/>
<path d="M116.439 19.3044H113.309V4.69545H116.439V6.33896C117.248 5.2172 118.474 4.43457 120.17 4.43457C122.048 4.43457 123.457 5.32155 124.187 6.86071C124.97 5.45198 126.405 4.43457 128.439 4.43457C131.231 4.43457 133.005 6.33896 133.005 9.52163V19.3044H129.874V10.4086C129.874 8.42596 128.883 7.48681 127.422 7.48681C125.857 7.48681 124.735 8.68683 124.735 10.6434V19.3044H121.578V10.4086C121.578 8.42596 120.613 7.48681 119.126 7.48681C117.561 7.48681 116.439 8.68683 116.439 10.6434V19.3044Z" fill="white"/>
<circle cx="79.3074" cy="17.7396" r="1.56525" fill="white"/>
<path d="M39.5639 11.9145V4.69531H42.696V19.2773H39.7747V16.414C38.9767 18.3683 37.3052 19.5652 34.8658 19.5652C31.2217 19.5652 29.5653 17.3685 29.5653 13.7476V4.69531H32.6974V13.0053C32.6974 15.505 33.6461 16.6564 35.6639 16.6564C37.9376 16.6564 39.5639 15.0051 39.5639 11.9145Z" fill="white"/>
</svg>
