<svg width="24" height="24" viewBox="0 0 24 24" fill="none" xmlns="http://www.w3.org/2000/svg">
<path d="M12 2.25C10.0716 2.25 8.18657 2.82183 6.58319 3.89317C4.97982 4.96452 3.73013 6.48726 2.99218 8.26884C2.25422 10.0504 2.06114 12.0108 2.43735 13.9021C2.81355 15.7934 3.74215 17.5307 5.10571 18.8943C6.46928 20.2579 8.20656 21.1865 10.0979 21.5627C11.9892 21.9389 13.9496 21.7458 15.7312 21.0078C17.5127 20.2699 19.0355 19.0202 20.1068 17.4168C21.1782 15.8134 21.75 13.9284 21.75 12C21.7473 9.41498 20.7192 6.93661 18.8913 5.10872C17.0634 3.28084 14.585 2.25273 12 2.25ZM12 20.25C10.3683 20.25 8.77326 19.7661 7.41655 18.8596C6.05984 17.9531 5.00242 16.6646 4.378 15.1571C3.75358 13.6496 3.5902 11.9908 3.90853 10.3905C4.22685 8.79016 5.01259 7.32015 6.16637 6.16637C7.32016 5.01259 8.79017 4.22685 10.3905 3.90852C11.9909 3.59019 13.6497 3.75357 15.1571 4.37799C16.6646 5.00242 17.9531 6.05984 18.8596 7.41655C19.7662 8.77325 20.25 10.3683 20.25 12C20.2475 14.1873 19.3775 16.2843 17.8309 17.8309C16.2843 19.3775 14.1873 20.2475 12 20.25ZM14.1647 13.1447C14.754 12.8291 15.221 12.3258 15.4917 11.7145C15.7623 11.1033 15.821 10.4191 15.6585 9.77069C15.496 9.12226 15.1216 8.54668 14.5946 8.13531C14.0677 7.72394 13.4185 7.50034 12.75 7.5H9.75C9.55109 7.5 9.36033 7.57902 9.21967 7.71967C9.07902 7.86032 9 8.05109 9 8.25V15.75C9 15.9489 9.07902 16.1397 9.21967 16.2803C9.36033 16.421 9.55109 16.5 9.75 16.5C9.94892 16.5 10.1397 16.421 10.2803 16.2803C10.421 16.1397 10.5 15.9489 10.5 15.75V13.5H12.5991L14.3803 16.1663C14.4907 16.3318 14.6624 16.4468 14.8575 16.4858C15.0527 16.5249 15.2553 16.4848 15.4209 16.3744C15.5865 16.264 15.7015 16.0923 15.7405 15.8972C15.7796 15.702 15.7395 15.4993 15.6291 15.3337L14.1647 13.1447ZM10.5 9H12.75C13.1478 9 13.5294 9.15804 13.8107 9.43934C14.092 9.72064 14.25 10.1022 14.25 10.5C14.25 10.8978 14.092 11.2794 13.8107 11.5607C13.5294 11.842 13.1478 12 12.75 12H10.5V9Z" fill="black"/>
</svg>
