<svg width="24" height="24" viewBox="0 0 24 24" fill="none" xmlns="http://www.w3.org/2000/svg">
<path d="M21.6 20.5491C21.6838 20.6605 21.735 20.7931 21.7476 20.9319C21.7603 21.0708 21.734 21.2105 21.6716 21.3352C21.6093 21.4599 21.5134 21.5648 21.3948 21.6381C21.2762 21.7114 21.1394 21.7501 21 21.75H3C2.86072 21.75 2.72418 21.7112 2.6057 21.638C2.48722 21.5648 2.39147 21.46 2.32918 21.3354C2.26689 21.2108 2.24052 21.0714 2.25303 20.9326C2.26554 20.7939 2.31643 20.6614 2.4 20.55C3.06411 19.6596 3.94971 18.9586 4.96875 18.5166C4.41017 18.0068 4.01878 17.34 3.84595 16.6037C3.67313 15.8675 3.72695 15.0962 4.00034 14.3911C4.27374 13.686 4.75394 13.08 5.37791 12.6527C6.00188 12.2254 6.74046 11.9968 7.49672 11.9968C8.25297 11.9968 8.99156 12.2254 9.61553 12.6527C10.2395 13.08 10.7197 13.686 10.9931 14.3911C11.2665 15.0962 11.3203 15.8675 11.1475 16.6037C10.9747 17.34 10.5833 18.0068 10.0247 18.5166C10.7599 18.8344 11.428 19.289 11.9934 19.8563C12.5589 19.289 13.227 18.8344 13.9622 18.5166C13.4036 18.0068 13.0122 17.34 12.8394 16.6037C12.6666 15.8675 12.7204 15.0962 12.9938 14.3911C13.2672 13.686 13.7474 13.08 14.3713 12.6527C14.9953 12.2254 15.7339 11.9968 16.4902 11.9968C17.2464 11.9968 17.985 12.2254 18.609 12.6527C19.2329 13.08 19.7131 13.686 19.9865 14.3911C20.2599 15.0962 20.3137 15.8675 20.1409 16.6037C19.9681 17.34 19.5767 18.0068 19.0181 18.5166C20.0419 18.9562 20.9322 19.6571 21.6 20.5491ZM2.55 11.85C2.62879 11.9091 2.71845 11.9521 2.81386 11.9765C2.90927 12.001 3.00856 12.0064 3.10607 11.9925C3.20357 11.9785 3.29737 11.9455 3.38212 11.8954C3.46687 11.8452 3.54091 11.7788 3.6 11.7C4.05409 11.0945 4.64291 10.6031 5.31983 10.2647C5.99675 9.92621 6.74318 9.75 7.5 9.75C8.25682 9.75 9.00325 9.92621 9.68017 10.2647C10.3571 10.6031 10.9459 11.0945 11.4 11.7C11.4699 11.7931 11.5604 11.8688 11.6646 11.9208C11.7687 11.9729 11.8836 12 12 12C12.1164 12 12.2313 11.9729 12.3354 11.9208C12.4396 11.8688 12.5301 11.7931 12.6 11.7C13.0541 11.0945 13.6429 10.6031 14.3198 10.2647C14.9968 9.92621 15.7432 9.75 16.5 9.75C17.2568 9.75 18.0032 9.92621 18.6802 10.2647C19.3571 10.6031 19.9459 11.0945 20.4 11.7C20.4592 11.7788 20.5333 11.8452 20.6181 11.8953C20.7029 11.9455 20.7967 11.9784 20.8943 11.9923C20.9918 12.0062 21.0911 12.0007 21.1866 11.9762C21.282 11.9517 21.3717 11.9087 21.4505 11.8495C21.5293 11.7904 21.5956 11.7163 21.6458 11.6315C21.6959 11.5467 21.7289 11.4528 21.7428 11.3553C21.7567 11.2577 21.7512 11.1584 21.7267 11.063C21.7022 10.9675 21.6592 10.8779 21.6 10.7991C20.9359 9.90894 20.0503 9.2082 19.0312 8.76657C19.5898 8.25675 19.9812 7.58997 20.154 6.85372C20.3269 6.11748 20.2731 5.34619 19.9997 4.64108C19.7263 3.93597 19.2461 3.33 18.6221 2.9027C17.9981 2.4754 17.2595 2.24675 16.5033 2.24675C15.747 2.24675 15.0084 2.4754 14.3845 2.9027C13.7605 3.33 13.2803 3.93597 13.0069 4.64108C12.7335 5.34619 12.6797 6.11748 12.8525 6.85372C13.0253 7.58997 13.4167 8.25675 13.9753 8.76657C13.2401 9.08435 12.572 9.53898 12.0066 10.1063C11.4411 9.53898 10.773 9.08435 10.0378 8.76657C10.5964 8.25675 10.9878 7.58997 11.1606 6.85372C11.3334 6.11748 11.2796 5.34619 11.0062 4.64108C10.7328 3.93597 10.2526 3.33 9.62866 2.9027C9.00468 2.4754 8.2661 2.24675 7.50984 2.24675C6.75359 2.24675 6.015 2.4754 5.39103 2.9027C4.76706 3.33 4.28686 3.93597 4.01347 4.64108C3.74007 5.34619 3.68625 6.11748 3.85908 6.85372C4.0319 7.58997 4.42329 8.25675 4.98188 8.76657C3.95805 9.20662 3.06774 9.90782 2.4 10.8C2.34091 10.8788 2.29791 10.9685 2.27347 11.0639C2.24902 11.1593 2.24361 11.2586 2.25754 11.3561C2.27147 11.4536 2.30446 11.5474 2.35464 11.6321C2.40483 11.7169 2.47121 11.7909 2.55 11.85Z" fill="black"/>
</svg>
