<svg width="24" height="24" viewBox="0 0 24 24" fill="none" xmlns="http://www.w3.org/2000/svg">
<path d="M16.3715 7.6284C16.1221 6.28507 15.5105 5.0354 14.6027 4.0143C13.6949 2.99321 12.5254 2.2395 11.2205 1.83455C9.91556 1.4296 8.52483 1.3888 7.19843 1.71655C5.87204 2.0443 4.66037 2.72815 3.69426 3.69426C2.72815 4.66037 2.0443 5.87204 1.71655 7.19843C1.3888 8.52483 1.4296 9.91556 1.83455 11.2205C2.2395 12.5254 2.99321 13.6949 4.0143 14.6027C5.0354 15.5105 6.28507 16.1221 7.6284 16.3715C7.87782 17.7149 8.48946 18.9645 9.39727 19.9856C10.3051 21.0067 11.4746 21.7604 12.7795 22.1654C14.0844 22.5703 15.4751 22.6111 16.8015 22.2834C18.1279 21.9556 19.3396 21.2718 20.3057 20.3057C21.2718 19.3396 21.9556 18.1279 22.2834 16.8015C22.6111 15.4751 22.5703 14.0844 22.1654 12.7795C21.7604 11.4746 21.0067 10.3051 19.9856 9.39727C18.9645 8.48946 17.7149 7.87782 16.3715 7.6284ZM21 15C21 15.1425 20.9934 15.2812 20.9831 15.4228L16.2956 10.7353C16.4174 10.2279 16.4859 9.70911 16.5 9.18746C17.7875 9.52174 18.9278 10.2737 19.7421 11.3256C20.5565 12.3774 20.9989 13.6697 21 15ZM19.7372 18.6759L14.804 13.7437C15.1685 13.2983 15.4809 12.8126 15.735 12.2962L20.5968 17.1562C20.3859 17.702 20.0963 18.214 19.7372 18.6759ZM17.1562 20.5968L12.2943 15.735C12.8108 15.4809 13.2964 15.1685 13.7418 14.804L18.674 19.7372C18.2127 20.0961 17.7013 20.3857 17.1562 20.5968ZM4.26278 5.32403L9.1959 10.2562C8.83141 10.7016 8.51907 11.1873 8.26497 11.7037L3.40309 6.84371C3.61402 6.29794 3.90365 5.78596 4.26278 5.32403ZM6.84371 3.40309L11.7056 8.26497C11.1892 8.51907 10.7035 8.83141 10.2581 9.1959L5.32403 4.26278C5.78596 3.90365 6.29794 3.61402 6.84371 3.40309ZM15 8.99996C14.9982 10.5907 14.3655 12.1158 13.2407 13.2407C12.1158 14.3655 10.5907 14.9982 8.99996 15C9.0017 13.4092 9.6344 11.8841 10.7592 10.7592C11.8841 9.6344 13.4092 9.0017 15 8.99996ZM14.8125 7.49996C14.2916 7.51265 13.7735 7.57957 13.2665 7.69965L8.57903 3.01215C8.71871 3.00653 8.85746 2.99996 8.99996 2.99996C10.3308 3.00133 11.6236 3.44438 12.6755 4.25963C13.7275 5.07488 14.4791 6.21622 14.8125 7.50465V7.49996ZM2.99996 8.99996C2.99996 8.85746 3.00653 8.71871 3.01684 8.57715L7.70434 13.2647C7.58413 13.7722 7.51721 14.291 7.50465 14.8125C6.21622 14.4791 5.07488 13.7275 4.25963 12.6755C3.44438 11.6236 3.00133 10.3308 2.99996 8.99996ZM9.18746 16.5C9.70831 16.4873 10.2264 16.4204 10.7334 16.3003L15.4209 20.9878C15.2812 20.9981 15.1397 21.0047 14.9981 21.0047C13.6675 21.0029 12.3752 20.5596 11.3236 19.7444C10.2721 18.9292 9.52077 17.7881 9.18746 16.5Z" fill="white"/>
</svg>
